{
	"asset":{
		"generator":"Khronos glTF Blender I/O v4.1.63",
		"version":"2.0"
	},
	"scene":0,
	"scenes":[
		{
			"name":"Scene",
			"nodes":[
				0,
				1,
				2,
				3
			]
		}
	],
	"nodes":[
		{
			"mesh":0,
			"name":"Seat"
		},
		{
			"mesh":1,
			"name":"Main frame"
		},
		{
			"mesh":2,
			"name":"Visor_frame"
		},
		{
			"mesh":3,
			"name":"Glass"
		}
	],
	"materials":[
		{
			"doubleSided":true,
			"name":"Material.004",
			"pbrMetallicRoughness":{
				"baseColorTexture":{
					"index":0
				},
				"metallicFactor":0,
				"roughnessFactor":0.5
			}
		},
		{
			"doubleSided":true,
			"name":"Material.010",
			"pbrMetallicRoughness":{
				"baseColorTexture":{
					"index":1
				},
				"metallicFactor":0,
				"roughnessFactor":0.5
			}
		},
		{
			"doubleSided":true,
			"name":"Material.002",
			"pbrMetallicRoughness":{
				"baseColorTexture":{
					"index":2
				},
				"metallicFactor":0,
				"roughnessFactor":0.5
			}
		},
		{
			"alphaMode":"BLEND",
			"doubleSided":true,
			"name":"Material.001",
			"pbrMetallicRoughness":{
				"baseColorFactor":[
					1,
					1,
					1,
					0.3937007784843445
				],
				"baseColorTexture":{
					"index":3
				},
				"metallicFactor":0,
				"roughnessFactor":0.5
			}
		}
	],
	"meshes":[
		{
			"name":"Cube.001",
			"primitives":[
				{
					"attributes":{
						"POSITION":0,
						"NORMAL":1,
						"TEXCOORD_0":2
					},
					"indices":3,
					"material":0
				}
			]
		},
		{
			"name":"Cube.003",
			"primitives":[
				{
					"attributes":{
						"POSITION":4,
						"NORMAL":5,
						"TEXCOORD_0":6
					},
					"indices":7,
					"material":1
				}
			]
		},
		{
			"name":"Cube.005",
			"primitives":[
				{
					"attributes":{
						"POSITION":8,
						"NORMAL":9,
						"TEXCOORD_0":10
					},
					"indices":11,
					"material":2
				}
			]
		},
		{
			"name":"Cube.007",
			"primitives":[
				{
					"attributes":{
						"POSITION":12,
						"NORMAL":13,
						"TEXCOORD_0":14
					},
					"indices":15,
					"material":3
				}
			]
		}
	],
	"textures":[
		{
			"sampler":0,
			"source":0
		},
		{
			"sampler":0,
			"source":1
		},
		{
			"sampler":0,
			"source":2
		},
		{
			"sampler":0,
			"source":3
		}
	],
	"images":[
		{
			"mimeType":"image/png",
			"name":"seat",
			"uri":"seat.png"
		},
		{
			"mimeType":"image/png",
			"name":"cockpit_base",
			"uri":"cockpit_base.png"
		},
		{
			"mimeType":"image/png",
			"name":"visor_frame",
			"uri":"visor_frame.png"
		},
		{
			"mimeType":"image/png",
			"name":"Glass",
			"uri":"Glass.png"
		}
	],
	"accessors":[
		{
			"bufferView":0,
			"componentType":5126,
			"count":126,
			"max":[
				0.06837401539087296,
				0.21038168668746948,
				1.1795705556869507
			],
			"min":[
				-0.06837403029203415,
				-0.02629763074219227,
				0.9550729990005493
			],
			"type":"VEC3"
		},
		{
			"bufferView":1,
			"componentType":5126,
			"count":126,
			"type":"VEC3"
		},
		{
			"bufferView":2,
			"componentType":5126,
			"count":126,
			"type":"VEC2"
		},
		{
			"bufferView":3,
			"componentType":5123,
			"count":216,
			"type":"SCALAR"
		},
		{
			"bufferView":4,
			"componentType":5126,
			"count":220,
			"max":[
				0.15778617560863495,
				0.16577567160129547,
				1.5853869915008545
			],
			"min":[
				-0.15778620541095734,
				-0.1017843633890152,
				0.8832412958145142
			],
			"type":"VEC3"
		},
		{
			"bufferView":5,
			"componentType":5126,
			"count":220,
			"type":"VEC3"
		},
		{
			"bufferView":6,
			"componentType":5126,
			"count":220,
			"type":"VEC2"
		},
		{
			"bufferView":7,
			"componentType":5123,
			"count":372,
			"type":"SCALAR"
		},
		{
			"bufferView":8,
			"componentType":5126,
			"count":72,
			"max":[
				0.044495683163404465,
				0.25108036398887634,
				1.398037314414978
			],
			"min":[
				-0.04449572041630745,
				0.13202793896198273,
				1.2964307069778442
			],
			"type":"VEC3"
		},
		{
			"bufferView":9,
			"componentType":5126,
			"count":72,
			"type":"VEC3"
		},
		{
			"bufferView":10,
			"componentType":5126,
			"count":72,
			"type":"VEC2"
		},
		{
			"bufferView":11,
			"componentType":5123,
			"count":120,
			"type":"SCALAR"
		},
		{
			"bufferView":12,
			"componentType":5126,
			"count":36,
			"max":[
				0.04207630082964897,
				0.26212432980537415,
				1.364840030670166
			],
			"min":[
				-0.04207633063197136,
				0.14902673661708832,
				1.317162036895752
			],
			"type":"VEC3"
		},
		{
			"bufferView":13,
			"componentType":5126,
			"count":36,
			"type":"VEC3"
		},
		{
			"bufferView":14,
			"componentType":5126,
			"count":36,
			"type":"VEC2"
		},
		{
			"bufferView":15,
			"componentType":5123,
			"count":60,
			"type":"SCALAR"
		}
	],
	"bufferViews":[
		{
			"buffer":0,
			"byteLength":1512,
			"byteOffset":0,
			"target":34962
		},
		{
			"buffer":0,
			"byteLength":1512,
			"byteOffset":1512,
			"target":34962
		},
		{
			"buffer":0,
			"byteLength":1008,
			"byteOffset":3024,
			"target":34962
		},
		{
			"buffer":0,
			"byteLength":432,
			"byteOffset":4032,
			"target":34963
		},
		{
			"buffer":0,
			"byteLength":2640,
			"byteOffset":4464,
			"target":34962
		},
		{
			"buffer":0,
			"byteLength":2640,
			"byteOffset":7104,
			"target":34962
		},
		{
			"buffer":0,
			"byteLength":1760,
			"byteOffset":9744,
			"target":34962
		},
		{
			"buffer":0,
			"byteLength":744,
			"byteOffset":11504,
			"target":34963
		},
		{
			"buffer":0,
			"byteLength":864,
			"byteOffset":12248,
			"target":34962
		},
		{
			"buffer":0,
			"byteLength":864,
			"byteOffset":13112,
			"target":34962
		},
		{
			"buffer":0,
			"byteLength":576,
			"byteOffset":13976,
			"target":34962
		},
		{
			"buffer":0,
			"byteLength":240,
			"byteOffset":14552,
			"target":34963
		},
		{
			"buffer":0,
			"byteLength":432,
			"byteOffset":14792,
			"target":34962
		},
		{
			"buffer":0,
			"byteLength":432,
			"byteOffset":15224,
			"target":34962
		},
		{
			"buffer":0,
			"byteLength":288,
			"byteOffset":15656,
			"target":34962
		},
		{
			"buffer":0,
			"byteLength":120,
			"byteOffset":15944,
			"target":34963
		}
	],
	"samplers":[
		{
			"magFilter":9729,
			"minFilter":9987
		}
	],
	"buffers":[
		{
			"byteLength":16064,
			"uri":"cockpit.bin"
		}
	]
}
