{
	"asset":{
		"generator":"Khronos glTF Blender I/O v4.1.63",
		"version":"2.0"
	},
	"scene":0,
	"scenes":[
		{
			"name":"Scene",
			"nodes":[
				0,
				1,
				3,
				5,
				6
			]
		}
	],
	"nodes":[
		{
			"mesh":0,
			"name":"visor",
			"translation":[
				0,
				0,
				-0.43978312611579895
			]
		},
		{
			"mesh":1,
			"name":"mainframe",
			"translation":[
				0,
				0,
				-0.43978312611579895
			]
		},
		{
			"mesh":2,
			"name":"rwing-aleron",
			"translation":[
				-0.5800000429153442,
				-0.04434321075677872,
				-0.39091822504997253
			]
		},
		{
			"children":[
				2
			],
			"mesh":3,
			"name":"rwing",
			"translation":[
				-0.5099999904632568,
				0.10000000149011612,
				0.26591822504997253
			]
		},
		{
			"mesh":4,
			"name":"lwing-aleron",
			"translation":[
				0.5800000429153442,
				-0.04434321075677872,
				-0.39091822504997253
			]
		},
		{
			"children":[
				4
			],
			"mesh":5,
			"name":"lwing",
			"translation":[
				0.5099999904632568,
				0.10000000149011612,
				0.26591822504997253
			]
		},
		{
			"mesh":6,
			"name":"cylinders",
			"translation":[
				0,
				0,
				-0.43978312611579895
			]
		}
	],
	"materials":[
		{
			"doubleSided":true,
			"name":"Material.007",
			"pbrMetallicRoughness":{
				"baseColorTexture":{
					"index":0
				},
				"metallicFactor":0,
				"roughnessFactor":0.5
			}
		},
		{
			"doubleSided":true,
			"name":"Material.009",
			"pbrMetallicRoughness":{
				"baseColorTexture":{
					"index":1
				},
				"metallicFactor":0,
				"roughnessFactor":0.5
			}
		},
		{
			"doubleSided":true,
			"name":"Material.005",
			"pbrMetallicRoughness":{
				"baseColorTexture":{
					"index":2
				},
				"metallicFactor":0,
				"roughnessFactor":0.5
			}
		},
		{
			"doubleSided":true,
			"name":"Material.001",
			"pbrMetallicRoughness":{
				"baseColorTexture":{
					"index":3
				},
				"metallicFactor":0,
				"roughnessFactor":0.5
			}
		},
		{
			"doubleSided":true,
			"name":"Material.006",
			"pbrMetallicRoughness":{
				"baseColorTexture":{
					"index":4
				},
				"metallicFactor":0,
				"roughnessFactor":0.5
			}
		},
		{
			"doubleSided":true,
			"name":"Material.012",
			"pbrMetallicRoughness":{
				"baseColorTexture":{
					"index":5
				},
				"metallicFactor":0,
				"roughnessFactor":0.5
			}
		},
		{
			"doubleSided":true,
			"name":"Material.008",
			"pbrMetallicRoughness":{
				"baseColorTexture":{
					"index":6
				},
				"metallicFactor":0,
				"roughnessFactor":0.5
			}
		}
	],
	"meshes":[
		{
			"name":"Cube.011",
			"primitives":[
				{
					"attributes":{
						"POSITION":0,
						"NORMAL":1,
						"TEXCOORD_0":2
					},
					"indices":3,
					"material":0
				}
			]
		},
		{
			"name":"Cube.002",
			"primitives":[
				{
					"attributes":{
						"POSITION":4,
						"NORMAL":5,
						"TEXCOORD_0":6
					},
					"indices":7,
					"material":1
				}
			]
		},
		{
			"name":"Cube.008",
			"primitives":[
				{
					"attributes":{
						"POSITION":8,
						"NORMAL":9,
						"TEXCOORD_0":10
					},
					"indices":11,
					"material":2
				}
			]
		},
		{
			"name":"Cube.001",
			"primitives":[
				{
					"attributes":{
						"POSITION":12,
						"NORMAL":13,
						"TEXCOORD_0":14
					},
					"indices":15,
					"material":3
				}
			]
		},
		{
			"name":"Cube.009",
			"primitives":[
				{
					"attributes":{
						"POSITION":16,
						"NORMAL":17,
						"TEXCOORD_0":18
					},
					"indices":11,
					"material":4
				}
			]
		},
		{
			"name":"Cube.016",
			"primitives":[
				{
					"attributes":{
						"POSITION":19,
						"NORMAL":20,
						"TEXCOORD_0":21
					},
					"indices":22,
					"material":5
				}
			]
		},
		{
			"name":"Cylinder.005",
			"primitives":[
				{
					"attributes":{
						"POSITION":23,
						"NORMAL":24,
						"TEXCOORD_0":25
					},
					"indices":26,
					"material":6
				}
			]
		}
	],
	"textures":[
		{
			"sampler":0,
			"source":0
		},
		{
			"sampler":0,
			"source":1
		},
		{
			"sampler":0,
			"source":2
		},
		{
			"sampler":0,
			"source":3
		},
		{
			"sampler":0,
			"source":2
		},
		{
			"sampler":0,
			"source":3
		},
		{
			"sampler":0,
			"source":4
		}
	],
	"images":[
		{
			"mimeType":"image/png",
			"name":"Visor",
			"uri":"Visor.png"
		},
		{
			"mimeType":"image/png",
			"name":"main_frame",
			"uri":"main_frame.png"
		},
		{
			"mimeType":"image/png",
			"name":"rwing",
			"uri":"rwing.png"
		},
		{
			"mimeType":"image/png",
			"name":"rwing",
			"uri":"rwing-1.png"
		},
		{
			"mimeType":"image/png",
			"name":"cylinders",
			"uri":"cylinders.png"
		}
	],
	"accessors":[
		{
			"bufferView":0,
			"componentType":5126,
			"count":146,
			"max":[
				0.09267570823431015,
				0.2497294843196869,
				2.0260796546936035
			],
			"min":[
				-0.09433411806821823,
				0.08048471808433533,
				0.949181854724884
			],
			"type":"VEC3"
		},
		{
			"bufferView":1,
			"componentType":5126,
			"count":146,
			"type":"VEC3"
		},
		{
			"bufferView":2,
			"componentType":5126,
			"count":146,
			"type":"VEC2"
		},
		{
			"bufferView":3,
			"componentType":5123,
			"count":240,
			"type":"SCALAR"
		},
		{
			"bufferView":4,
			"componentType":5126,
			"count":596,
			"max":[
				0.7887135744094849,
				0.47936275601387024,
				1.4867832660675049
			],
			"min":[
				-0.7903719544410706,
				-0.14740987122058868,
				-0.624195396900177
			],
			"type":"VEC3"
		},
		{
			"bufferView":5,
			"componentType":5126,
			"count":596,
			"type":"VEC3"
		},
		{
			"bufferView":6,
			"componentType":5126,
			"count":596,
			"type":"VEC2"
		},
		{
			"bufferView":7,
			"componentType":5123,
			"count":972,
			"type":"SCALAR"
		},
		{
			"bufferView":8,
			"componentType":5126,
			"count":24,
			"max":[
				0.6233232021331787,
				0.005473568569868803,
				-0.04761074483394623
			],
			"min":[
				-0.375031441450119,
				-0.01877754181623459,
				-0.2023138701915741
			],
			"type":"VEC3"
		},
		{
			"bufferView":9,
			"componentType":5126,
			"count":24,
			"type":"VEC3"
		},
		{
			"bufferView":10,
			"componentType":5126,
			"count":24,
			"type":"VEC2"
		},
		{
			"bufferView":11,
			"componentType":5123,
			"count":36,
			"type":"SCALAR"
		},
		{
			"bufferView":12,
			"componentType":5126,
			"count":58,
			"max":[
				0.2982882559299469,
				0.0024704530369490385,
				0.11354278773069382
			],
			"min":[
				-1.0222212076187134,
				-0.0657263696193695,
				-0.6058856248855591
			],
			"type":"VEC3"
		},
		{
			"bufferView":13,
			"componentType":5126,
			"count":58,
			"type":"VEC3"
		},
		{
			"bufferView":14,
			"componentType":5126,
			"count":58,
			"type":"VEC2"
		},
		{
			"bufferView":15,
			"componentType":5123,
			"count":96,
			"type":"SCALAR"
		},
		{
			"bufferView":16,
			"componentType":5126,
			"count":24,
			"max":[
				0.375031441450119,
				0.005473568569868803,
				-0.04761074483394623
			],
			"min":[
				-0.6233232021331787,
				-0.01877754181623459,
				-0.2023138701915741
			],
			"type":"VEC3"
		},
		{
			"bufferView":17,
			"componentType":5126,
			"count":24,
			"type":"VEC3"
		},
		{
			"bufferView":18,
			"componentType":5126,
			"count":24,
			"type":"VEC2"
		},
		{
			"bufferView":19,
			"componentType":5126,
			"count":58,
			"max":[
				1.0218558311462402,
				0.0024704530369490385,
				0.11370071768760681
			],
			"min":[
				-0.29848596453666687,
				-0.0657263696193695,
				-0.6065016984939575
			],
			"type":"VEC3"
		},
		{
			"bufferView":20,
			"componentType":5126,
			"count":58,
			"type":"VEC3"
		},
		{
			"bufferView":21,
			"componentType":5126,
			"count":58,
			"type":"VEC2"
		},
		{
			"bufferView":22,
			"componentType":5123,
			"count":96,
			"type":"SCALAR"
		},
		{
			"bufferView":23,
			"componentType":5126,
			"count":2352,
			"max":[
				0.34963881969451904,
				0.16936254501342773,
				2.425856113433838
			],
			"min":[
				-0.3512977063655853,
				-0.17679665982723236,
				-0.5918092131614685
			],
			"type":"VEC3"
		},
		{
			"bufferView":24,
			"componentType":5126,
			"count":2352,
			"type":"VEC3"
		},
		{
			"bufferView":25,
			"componentType":5126,
			"count":2352,
			"type":"VEC2"
		},
		{
			"bufferView":26,
			"componentType":5123,
			"count":3804,
			"type":"SCALAR"
		}
	],
	"bufferViews":[
		{
			"buffer":0,
			"byteLength":1752,
			"byteOffset":0,
			"target":34962
		},
		{
			"buffer":0,
			"byteLength":1752,
			"byteOffset":1752,
			"target":34962
		},
		{
			"buffer":0,
			"byteLength":1168,
			"byteOffset":3504,
			"target":34962
		},
		{
			"buffer":0,
			"byteLength":480,
			"byteOffset":4672,
			"target":34963
		},
		{
			"buffer":0,
			"byteLength":7152,
			"byteOffset":5152,
			"target":34962
		},
		{
			"buffer":0,
			"byteLength":7152,
			"byteOffset":12304,
			"target":34962
		},
		{
			"buffer":0,
			"byteLength":4768,
			"byteOffset":19456,
			"target":34962
		},
		{
			"buffer":0,
			"byteLength":1944,
			"byteOffset":24224,
			"target":34963
		},
		{
			"buffer":0,
			"byteLength":288,
			"byteOffset":26168,
			"target":34962
		},
		{
			"buffer":0,
			"byteLength":288,
			"byteOffset":26456,
			"target":34962
		},
		{
			"buffer":0,
			"byteLength":192,
			"byteOffset":26744,
			"target":34962
		},
		{
			"buffer":0,
			"byteLength":72,
			"byteOffset":26936,
			"target":34963
		},
		{
			"buffer":0,
			"byteLength":696,
			"byteOffset":27008,
			"target":34962
		},
		{
			"buffer":0,
			"byteLength":696,
			"byteOffset":27704,
			"target":34962
		},
		{
			"buffer":0,
			"byteLength":464,
			"byteOffset":28400,
			"target":34962
		},
		{
			"buffer":0,
			"byteLength":192,
			"byteOffset":28864,
			"target":34963
		},
		{
			"buffer":0,
			"byteLength":288,
			"byteOffset":29056,
			"target":34962
		},
		{
			"buffer":0,
			"byteLength":288,
			"byteOffset":29344,
			"target":34962
		},
		{
			"buffer":0,
			"byteLength":192,
			"byteOffset":29632,
			"target":34962
		},
		{
			"buffer":0,
			"byteLength":696,
			"byteOffset":29824,
			"target":34962
		},
		{
			"buffer":0,
			"byteLength":696,
			"byteOffset":30520,
			"target":34962
		},
		{
			"buffer":0,
			"byteLength":464,
			"byteOffset":31216,
			"target":34962
		},
		{
			"buffer":0,
			"byteLength":192,
			"byteOffset":31680,
			"target":34963
		},
		{
			"buffer":0,
			"byteLength":28224,
			"byteOffset":31872,
			"target":34962
		},
		{
			"buffer":0,
			"byteLength":28224,
			"byteOffset":60096,
			"target":34962
		},
		{
			"buffer":0,
			"byteLength":18816,
			"byteOffset":88320,
			"target":34962
		},
		{
			"buffer":0,
			"byteLength":7608,
			"byteOffset":107136,
			"target":34963
		}
	],
	"samplers":[
		{
			"magFilter":9729,
			"minFilter":9987
		}
	],
	"buffers":[
		{
			"byteLength":114744,
			"uri":"F14.bin"
		}
	]
}
