{
	"asset":{
		"generator":"Khronos glTF Blender I/O v4.1.63",
		"version":"2.0"
	},
	"scene":0,
	"scenes":[
		{
			"name":"Scene",
			"nodes":[
				0,
				1,
				2,
				3,
				4,
				5
			]
		}
	],
	"nodes":[
		{
			"mesh":0,
			"name":"Cube"
		},
		{
			"mesh":1,
			"name":"Cube.011"
		},
		{
			"mesh":2,
			"name":"Cylinder.001"
		},
		{
			"mesh":3,
			"name":"Cylinder.002"
		},
		{
			"mesh":4,
			"name":"Cylinder.003"
		},
		{
			"mesh":5,
			"name":"Cylinder.004"
		}
	],
	"materials":[
		{
			"doubleSided":true,
			"name":"Material.008",
			"pbrMetallicRoughness":{
				"baseColorTexture":{
					"index":0
				},
				"metallicFactor":0,
				"roughnessFactor":0.5
			}
		},
		{
			"doubleSided":true,
			"name":"Material.009",
			"pbrMetallicRoughness":{
				"baseColorTexture":{
					"index":1
				},
				"metallicFactor":0,
				"roughnessFactor":0.5
			}
		},
		{
			"doubleSided":true,
			"name":"Material.010",
			"pbrMetallicRoughness":{
				"baseColorTexture":{
					"index":2
				},
				"metallicFactor":0,
				"roughnessFactor":0.5
			}
		},
		{
			"doubleSided":true,
			"name":"Material.011",
			"pbrMetallicRoughness":{
				"baseColorTexture":{
					"index":3
				},
				"metallicFactor":0,
				"roughnessFactor":0.5
			}
		},
		{
			"doubleSided":true,
			"name":"Material.012",
			"pbrMetallicRoughness":{
				"baseColorTexture":{
					"index":4
				},
				"metallicFactor":0,
				"roughnessFactor":0.5
			}
		},
		{
			"doubleSided":true,
			"name":"Material.013",
			"pbrMetallicRoughness":{
				"baseColorTexture":{
					"index":5
				},
				"metallicFactor":0,
				"roughnessFactor":0.5
			}
		}
	],
	"meshes":[
		{
			"name":"Cube.002",
			"primitives":[
				{
					"attributes":{
						"POSITION":0,
						"NORMAL":1,
						"TEXCOORD_0":2
					},
					"indices":3,
					"material":0
				}
			]
		},
		{
			"name":"Cube.003",
			"primitives":[
				{
					"attributes":{
						"POSITION":4,
						"NORMAL":5,
						"TEXCOORD_0":6
					},
					"indices":7,
					"material":1
				}
			]
		},
		{
			"name":"Cylinder.005",
			"primitives":[
				{
					"attributes":{
						"POSITION":8,
						"NORMAL":9,
						"TEXCOORD_0":10
					},
					"indices":11,
					"material":2
				}
			]
		},
		{
			"name":"Cylinder.006",
			"primitives":[
				{
					"attributes":{
						"POSITION":12,
						"NORMAL":13,
						"TEXCOORD_0":14
					},
					"indices":11,
					"material":3
				}
			]
		},
		{
			"name":"Cylinder.007",
			"primitives":[
				{
					"attributes":{
						"POSITION":15,
						"NORMAL":16,
						"TEXCOORD_0":17
					},
					"indices":11,
					"material":4
				}
			]
		},
		{
			"name":"Cylinder.008",
			"primitives":[
				{
					"attributes":{
						"POSITION":18,
						"NORMAL":19,
						"TEXCOORD_0":20
					},
					"indices":11,
					"material":5
				}
			]
		}
	],
	"textures":[
		{
			"sampler":0,
			"source":0
		},
		{
			"sampler":0,
			"source":1
		},
		{
			"sampler":0,
			"source":2
		},
		{
			"sampler":0,
			"source":2
		},
		{
			"sampler":0,
			"source":2
		},
		{
			"sampler":0,
			"source":2
		}
	],
	"images":[
		{
			"mimeType":"image/png",
			"name":"tower",
			"uri":"tower.png"
		},
		{
			"mimeType":"image/png",
			"name":"Connection",
			"uri":"Connection.png"
		},
		{
			"mimeType":"image/png",
			"name":"BaseCilinder",
			"uri":"BaseCilinder.png"
		}
	],
	"accessors":[
		{
			"bufferView":0,
			"componentType":5126,
			"count":210,
			"max":[
				2.1716248989105225,
				1.9675965309143066,
				2.1716253757476807
			],
			"min":[
				-2.1716248989105225,
				0.3926667869091034,
				-2.1716248989105225
			],
			"type":"VEC3"
		},
		{
			"bufferView":1,
			"componentType":5126,
			"count":210,
			"type":"VEC3"
		},
		{
			"bufferView":2,
			"componentType":5126,
			"count":210,
			"type":"VEC2"
		},
		{
			"bufferView":3,
			"componentType":5123,
			"count":324,
			"type":"SCALAR"
		},
		{
			"bufferView":4,
			"componentType":5126,
			"count":600,
			"max":[
				1.2000000476837158,
				0.20000019669532776,
				1.2000001668930054
			],
			"min":[
				-1.2000000476837158,
				-0.3748711049556732,
				-1.2000001668930054
			],
			"type":"VEC3"
		},
		{
			"bufferView":5,
			"componentType":5126,
			"count":600,
			"type":"VEC3"
		},
		{
			"bufferView":6,
			"componentType":5126,
			"count":600,
			"type":"VEC2"
		},
		{
			"bufferView":7,
			"componentType":5123,
			"count":852,
			"type":"SCALAR"
		},
		{
			"bufferView":8,
			"componentType":5126,
			"count":48,
			"max":[
				1.5,
				1,
				1.5000003576278687
			],
			"min":[
				0.5,
				-8.000000953674316,
				0.4999989867210388
			],
			"type":"VEC3"
		},
		{
			"bufferView":9,
			"componentType":5126,
			"count":48,
			"type":"VEC3"
		},
		{
			"bufferView":10,
			"componentType":5126,
			"count":48,
			"type":"VEC2"
		},
		{
			"bufferView":11,
			"componentType":5123,
			"count":84,
			"type":"SCALAR"
		},
		{
			"bufferView":12,
			"componentType":5126,
			"count":48,
			"max":[
				1.5,
				1.0000003576278687,
				-0.49999991059303284
			],
			"min":[
				0.5,
				-8.000000953674316,
				-1.500001311302185
			],
			"type":"VEC3"
		},
		{
			"bufferView":13,
			"componentType":5126,
			"count":48,
			"type":"VEC3"
		},
		{
			"bufferView":14,
			"componentType":5126,
			"count":48,
			"type":"VEC2"
		},
		{
			"bufferView":15,
			"componentType":5126,
			"count":48,
			"max":[
				-0.5,
				1.0000003576278687,
				-0.49999991059303284
			],
			"min":[
				-1.5,
				-8.000000953674316,
				-1.500001311302185
			],
			"type":"VEC3"
		},
		{
			"bufferView":16,
			"componentType":5126,
			"count":48,
			"type":"VEC3"
		},
		{
			"bufferView":17,
			"componentType":5126,
			"count":48,
			"type":"VEC2"
		},
		{
			"bufferView":18,
			"componentType":5126,
			"count":48,
			"max":[
				-0.5,
				1,
				1.5000003576278687
			],
			"min":[
				-1.5,
				-8.000000953674316,
				0.4999989867210388
			],
			"type":"VEC3"
		},
		{
			"bufferView":19,
			"componentType":5126,
			"count":48,
			"type":"VEC3"
		},
		{
			"bufferView":20,
			"componentType":5126,
			"count":48,
			"type":"VEC2"
		}
	],
	"bufferViews":[
		{
			"buffer":0,
			"byteLength":2520,
			"byteOffset":0,
			"target":34962
		},
		{
			"buffer":0,
			"byteLength":2520,
			"byteOffset":2520,
			"target":34962
		},
		{
			"buffer":0,
			"byteLength":1680,
			"byteOffset":5040,
			"target":34962
		},
		{
			"buffer":0,
			"byteLength":648,
			"byteOffset":6720,
			"target":34963
		},
		{
			"buffer":0,
			"byteLength":7200,
			"byteOffset":7368,
			"target":34962
		},
		{
			"buffer":0,
			"byteLength":7200,
			"byteOffset":14568,
			"target":34962
		},
		{
			"buffer":0,
			"byteLength":4800,
			"byteOffset":21768,
			"target":34962
		},
		{
			"buffer":0,
			"byteLength":1704,
			"byteOffset":26568,
			"target":34963
		},
		{
			"buffer":0,
			"byteLength":576,
			"byteOffset":28272,
			"target":34962
		},
		{
			"buffer":0,
			"byteLength":576,
			"byteOffset":28848,
			"target":34962
		},
		{
			"buffer":0,
			"byteLength":384,
			"byteOffset":29424,
			"target":34962
		},
		{
			"buffer":0,
			"byteLength":168,
			"byteOffset":29808,
			"target":34963
		},
		{
			"buffer":0,
			"byteLength":576,
			"byteOffset":29976,
			"target":34962
		},
		{
			"buffer":0,
			"byteLength":576,
			"byteOffset":30552,
			"target":34962
		},
		{
			"buffer":0,
			"byteLength":384,
			"byteOffset":31128,
			"target":34962
		},
		{
			"buffer":0,
			"byteLength":576,
			"byteOffset":31512,
			"target":34962
		},
		{
			"buffer":0,
			"byteLength":576,
			"byteOffset":32088,
			"target":34962
		},
		{
			"buffer":0,
			"byteLength":384,
			"byteOffset":32664,
			"target":34962
		},
		{
			"buffer":0,
			"byteLength":576,
			"byteOffset":33048,
			"target":34962
		},
		{
			"buffer":0,
			"byteLength":576,
			"byteOffset":33624,
			"target":34962
		},
		{
			"buffer":0,
			"byteLength":384,
			"byteOffset":34200,
			"target":34962
		}
	],
	"samplers":[
		{
			"magFilter":9729,
			"minFilter":9987
		}
	],
	"buffers":[
		{
			"byteLength":34584,
			"uri":"tower.bin"
		}
	]
}
