# Blender 5.0.1
# www.blender.org
mtllib mfd.mtl
o Button
v -0.084343 0.779922 0.105496
v -0.084343 0.948608 0.105496
v -0.084343 0.779922 0.073462
v -0.084343 0.948608 0.073462
v 0.084343 0.779922 0.105496
v 0.084343 0.948608 0.105496
v 0.084343 0.779922 0.073462
v 0.084343 0.948608 0.073462
vn -1.0000 -0.0000 -0.0000
vn 1.0000 -0.0000 -0.0000
vn -0.0000 -0.0000 1.0000
vn -0.0000 -1.0000 -0.0000
vn -0.0000 1.0000 -0.0000
vt 0.375000 0.000000
vt 0.625000 0.000000
vt 0.625000 0.250000
vt 0.375000 0.250000
vt 0.375000 0.500000
vt 0.625000 0.500000
vt 0.625000 0.750000
vt 0.375000 0.750000
vt 0.625000 1.000000
vt 0.375000 1.000000
vt 0.125000 0.500000
vt 0.125000 0.750000
vt 0.875000 0.500000
vt 0.875000 0.750000
s 0
usemtl Button
f 1/1/1 2/2/1 4/3/1 3/4/1
f 7/5/2 8/6/2 6/7/2 5/8/2
f 5/8/3 6/7/3 2/9/3 1/10/3
f 3/11/4 7/5/4 5/8/4 1/12/4
f 8/6/5 4/13/5 2/14/5 6/7/5
o Mfd
v 0.726082 0.726082 0.081522
v 0.726082 -0.726082 0.081522
v -0.726082 0.726082 0.081522
v -0.726082 -0.726082 0.081522
v 0.726082 -0.726082 0.019257
v 0.726082 0.726082 0.019257
v -0.726082 0.726082 0.019257
v -0.726082 -0.726082 0.019257
v 0.808395 1.000000 -0.081522
v 1.000000 0.808395 -0.081522
v 1.000000 -0.808395 -0.081522
v 0.808395 -1.000000 -0.081522
v -1.000000 0.808395 -0.081522
v -0.808395 1.000000 -0.081522
v -0.808395 -1.000000 -0.081522
v -1.000000 -0.808395 -0.081522
v -1.000000 -0.808395 0.081522
v -0.808395 -1.000000 0.081522
v -0.864515 -0.864515 0.081522
v -0.808395 1.000000 0.081522
v -1.000000 0.808395 0.081522
v -0.864515 0.864515 0.081522
v 1.000000 0.808395 0.081522
v 0.808395 1.000000 0.081522
v 0.864515 0.864515 0.081522
v 0.808395 -1.000000 0.081522
v 1.000000 -0.808395 0.081522
v 0.864515 -0.864515 0.081522
vn -0.0000 1.0000 -0.0000
vn -0.0000 -1.0000 -0.0000
vn -0.0000 -0.0000 1.0000
vn 1.0000 -0.0000 -0.0000
vn -1.0000 -0.0000 -0.0000
vn -0.7071 -0.7071 -0.0000
vn 0.7071 0.7071 -0.0000
vn -0.7071 0.7071 -0.0000
vn 0.7071 -0.7071 -0.0000
vt 0.409240 0.965760
vt 0.409240 0.784240
vt 0.590760 0.784240
vt 0.590760 0.965760
vt 0.392963 0.994012
vt 0.375000 0.976049
vt 0.391936 0.983064
vt 0.619012 0.982037
vt 0.601049 1.000000
vt 0.608064 0.983064
vt 0.601049 0.750000
vt 0.633981 0.758981
vt 0.608064 0.766936
vt 0.363025 0.761975
vt 0.395957 0.752994
vt 0.391936 0.766936
vt 0.148951 0.500000
vt 0.148951 0.750000
vt 0.125000 0.750000
vt 0.125000 0.500000
vt 0.648951 0.500000
vt 0.601049 0.500000
vt 0.851049 0.750000
vt 0.851049 0.500000
vt 0.875000 0.500000
vt 0.875000 0.750000
vt 0.351049 0.500000
vt 0.398951 0.500000
vt 0.398951 0.000000
vt 0.601049 0.000000
vt 0.601049 0.250000
vt 0.398951 0.250000
s 0
usemtl Screen
f 13/16/8 14/17/8 15/18/8 16/15/8
usemtl Body
f 12/15/6 10/16/6 13/16/6 16/15/6
f 9/17/7 11/18/7 15/18/7 14/17/7
f 11/18/9 12/15/9 16/15/9 15/18/9
f 10/16/10 9/17/10 14/17/10 13/16/10
f 25/19/8 26/20/8 27/21/8
f 28/22/8 29/23/8 30/24/8
f 31/25/8 32/26/8 33/27/8
f 34/28/8 35/29/8 36/30/8
f 23/31/11 26/32/11 25/33/11 24/34/11
f 17/35/12 32/26/12 31/25/12 18/36/12
f 28/37/13 22/38/13 21/39/13 29/40/13
f 34/28/14 20/41/14 19/42/14 35/29/14
f 19/42/9 18/36/9 31/25/9 35/29/9
f 17/35/6 22/38/6 28/37/6 32/26/6
f 23/31/7 20/41/7 34/28/7 26/32/7
f 25/43/10 29/44/10 21/45/10 24/46/10
f 10/16/8 12/15/8 27/21/8 26/20/8 34/28/8 36/30/8
f 12/15/8 11/18/8 30/24/8 29/23/8 25/19/8 27/21/8
f 11/18/8 9/17/8 33/27/8 32/26/8 28/22/8 30/24/8
f 9/17/8 10/16/8 36/30/8 35/29/8 31/25/8 33/27/8
