{
	"asset":{
		"generator":"Khronos glTF Blender I/O v4.1.63",
		"version":"2.0"
	},
	"scene":0,
	"scenes":[
		{
			"name":"Scene",
			"nodes":[
				0,
				1,
				2,
				3,
				4,
				5
			]
		}
	],
	"nodes":[
		{
			"mesh":0,
			"name":"Cube"
		},
		{
			"mesh":1,
			"name":"Cube.011"
		},
		{
			"mesh":2,
			"name":"Cylinder.001"
		},
		{
			"mesh":3,
			"name":"Cylinder.002"
		},
		{
			"mesh":4,
			"name":"Cylinder.003"
		},
		{
			"mesh":5,
			"name":"Cylinder.004"
		}
	],
	"materials":[
		{
			"doubleSided":true,
			"name":"Material.002",
			"pbrMetallicRoughness":{
				"baseColorTexture":{
					"index":0
				},
				"metallicFactor":0,
				"roughnessFactor":0.5
			}
		},
		{
			"doubleSided":true,
			"name":"Material.003",
			"pbrMetallicRoughness":{
				"baseColorTexture":{
					"index":1
				},
				"metallicFactor":0,
				"roughnessFactor":0.5
			}
		},
		{
			"doubleSided":true,
			"name":"Material.004",
			"pbrMetallicRoughness":{
				"baseColorTexture":{
					"index":2
				},
				"metallicFactor":0,
				"roughnessFactor":0.5
			}
		},
		{
			"doubleSided":true,
			"name":"Material.005",
			"pbrMetallicRoughness":{
				"baseColorTexture":{
					"index":3
				},
				"metallicFactor":0,
				"roughnessFactor":0.5
			}
		},
		{
			"doubleSided":true,
			"name":"Material.006",
			"pbrMetallicRoughness":{
				"baseColorTexture":{
					"index":4
				},
				"metallicFactor":0,
				"roughnessFactor":0.5
			}
		},
		{
			"doubleSided":true,
			"name":"Material.014",
			"pbrMetallicRoughness":{
				"baseColorTexture":{
					"index":5
				},
				"metallicFactor":0,
				"roughnessFactor":0.5
			}
		}
	],
	"meshes":[
		{
			"name":"Cube.001",
			"primitives":[
				{
					"attributes":{
						"POSITION":0,
						"NORMAL":1,
						"TEXCOORD_0":2
					},
					"indices":3,
					"material":0
				}
			]
		},
		{
			"name":"Cube.004",
			"primitives":[
				{
					"attributes":{
						"POSITION":4,
						"NORMAL":5,
						"TEXCOORD_0":6
					},
					"indices":7,
					"material":1
				}
			]
		},
		{
			"name":"Cylinder.001",
			"primitives":[
				{
					"attributes":{
						"POSITION":8,
						"NORMAL":9,
						"TEXCOORD_0":10
					},
					"indices":11,
					"material":2
				}
			]
		},
		{
			"name":"Cylinder.002",
			"primitives":[
				{
					"attributes":{
						"POSITION":12,
						"NORMAL":13,
						"TEXCOORD_0":14
					},
					"indices":11,
					"material":3
				}
			]
		},
		{
			"name":"Cylinder.003",
			"primitives":[
				{
					"attributes":{
						"POSITION":15,
						"NORMAL":16,
						"TEXCOORD_0":17
					},
					"indices":11,
					"material":4
				}
			]
		},
		{
			"name":"Cylinder.004",
			"primitives":[
				{
					"attributes":{
						"POSITION":18,
						"NORMAL":19,
						"TEXCOORD_0":20
					},
					"indices":11,
					"material":5
				}
			]
		}
	],
	"textures":[
		{
			"sampler":0,
			"source":0
		},
		{
			"sampler":0,
			"source":1
		},
		{
			"sampler":0,
			"source":2
		},
		{
			"sampler":0,
			"source":2
		},
		{
			"sampler":0,
			"source":2
		},
		{
			"sampler":0,
			"source":2
		}
	],
	"images":[
		{
			"mimeType":"image/png",
			"name":"Base",
			"uri":"Base.png"
		},
		{
			"mimeType":"image/png",
			"name":"Connection",
			"uri":"Connection.png"
		},
		{
			"mimeType":"image/png",
			"name":"BaseCilinder",
			"uri":"BaseCilinder.png"
		}
	],
	"accessors":[
		{
			"bufferView":0,
			"componentType":5126,
			"count":96,
			"max":[
				3,
				1.5423671007156372,
				3.5000007152557373
			],
			"min":[
				-3.5,
				1.1149897575378418,
				-3.000000238418579
			],
			"type":"VEC3"
		},
		{
			"bufferView":1,
			"componentType":5126,
			"count":96,
			"type":"VEC3"
		},
		{
			"bufferView":2,
			"componentType":5126,
			"count":96,
			"type":"VEC2"
		},
		{
			"bufferView":3,
			"componentType":5123,
			"count":168,
			"type":"SCALAR"
		},
		{
			"bufferView":4,
			"componentType":5126,
			"count":600,
			"max":[
				1.2000000476837158,
				0.20000019669532776,
				1.2000001668930054
			],
			"min":[
				-1.2000000476837158,
				-0.3748711049556732,
				-1.2000001668930054
			],
			"type":"VEC3"
		},
		{
			"bufferView":5,
			"componentType":5126,
			"count":600,
			"type":"VEC3"
		},
		{
			"bufferView":6,
			"componentType":5126,
			"count":600,
			"type":"VEC2"
		},
		{
			"bufferView":7,
			"componentType":5123,
			"count":852,
			"type":"SCALAR"
		},
		{
			"bufferView":8,
			"componentType":5126,
			"count":48,
			"max":[
				1.8457770347595215,
				1.2305179834365845,
				1.8457773923873901
			],
			"min":[
				0.6152589917182922,
				-9.844145774841309,
				0.6152587532997131
			],
			"type":"VEC3"
		},
		{
			"bufferView":9,
			"componentType":5126,
			"count":48,
			"type":"VEC3"
		},
		{
			"bufferView":10,
			"componentType":5126,
			"count":48,
			"type":"VEC2"
		},
		{
			"bufferView":11,
			"componentType":5123,
			"count":84,
			"type":"SCALAR"
		},
		{
			"bufferView":12,
			"componentType":5126,
			"count":48,
			"max":[
				1.8457770347595215,
				1.2305183410644531,
				-0.6152588725090027
			],
			"min":[
				0.6152589917182922,
				-9.844145774841309,
				-1.8457775115966797
			],
			"type":"VEC3"
		},
		{
			"bufferView":13,
			"componentType":5126,
			"count":48,
			"type":"VEC3"
		},
		{
			"bufferView":14,
			"componentType":5126,
			"count":48,
			"type":"VEC2"
		},
		{
			"bufferView":15,
			"componentType":5126,
			"count":48,
			"max":[
				-0.6152589917182922,
				1.2305183410644531,
				-0.6152588725090027
			],
			"min":[
				-1.8457770347595215,
				-9.844145774841309,
				-1.8457775115966797
			],
			"type":"VEC3"
		},
		{
			"bufferView":16,
			"componentType":5126,
			"count":48,
			"type":"VEC3"
		},
		{
			"bufferView":17,
			"componentType":5126,
			"count":48,
			"type":"VEC2"
		},
		{
			"bufferView":18,
			"componentType":5126,
			"count":48,
			"max":[
				-0.6152589917182922,
				1.2305179834365845,
				1.8457773923873901
			],
			"min":[
				-1.8457770347595215,
				-9.844145774841309,
				0.6152587532997131
			],
			"type":"VEC3"
		},
		{
			"bufferView":19,
			"componentType":5126,
			"count":48,
			"type":"VEC3"
		},
		{
			"bufferView":20,
			"componentType":5126,
			"count":48,
			"type":"VEC2"
		}
	],
	"bufferViews":[
		{
			"buffer":0,
			"byteLength":1152,
			"byteOffset":0,
			"target":34962
		},
		{
			"buffer":0,
			"byteLength":1152,
			"byteOffset":1152,
			"target":34962
		},
		{
			"buffer":0,
			"byteLength":768,
			"byteOffset":2304,
			"target":34962
		},
		{
			"buffer":0,
			"byteLength":336,
			"byteOffset":3072,
			"target":34963
		},
		{
			"buffer":0,
			"byteLength":7200,
			"byteOffset":3408,
			"target":34962
		},
		{
			"buffer":0,
			"byteLength":7200,
			"byteOffset":10608,
			"target":34962
		},
		{
			"buffer":0,
			"byteLength":4800,
			"byteOffset":17808,
			"target":34962
		},
		{
			"buffer":0,
			"byteLength":1704,
			"byteOffset":22608,
			"target":34963
		},
		{
			"buffer":0,
			"byteLength":576,
			"byteOffset":24312,
			"target":34962
		},
		{
			"buffer":0,
			"byteLength":576,
			"byteOffset":24888,
			"target":34962
		},
		{
			"buffer":0,
			"byteLength":384,
			"byteOffset":25464,
			"target":34962
		},
		{
			"buffer":0,
			"byteLength":168,
			"byteOffset":25848,
			"target":34963
		},
		{
			"buffer":0,
			"byteLength":576,
			"byteOffset":26016,
			"target":34962
		},
		{
			"buffer":0,
			"byteLength":576,
			"byteOffset":26592,
			"target":34962
		},
		{
			"buffer":0,
			"byteLength":384,
			"byteOffset":27168,
			"target":34962
		},
		{
			"buffer":0,
			"byteLength":576,
			"byteOffset":27552,
			"target":34962
		},
		{
			"buffer":0,
			"byteLength":576,
			"byteOffset":28128,
			"target":34962
		},
		{
			"buffer":0,
			"byteLength":384,
			"byteOffset":28704,
			"target":34962
		},
		{
			"buffer":0,
			"byteLength":576,
			"byteOffset":29088,
			"target":34962
		},
		{
			"buffer":0,
			"byteLength":576,
			"byteOffset":29664,
			"target":34962
		},
		{
			"buffer":0,
			"byteLength":384,
			"byteOffset":30240,
			"target":34962
		}
	],
	"samplers":[
		{
			"magFilter":9729,
			"minFilter":9987
		}
	],
	"buffers":[
		{
			"byteLength":30624,
			"uri":"tower2.bin"
		}
	]
}
