{
	"asset":{
		"generator":"Khronos glTF Blender I/O v4.1.63",
		"version":"2.0"
	},
	"scene":0,
	"scenes":[
		{
			"name":"Scene",
			"nodes":[
				0,
				1,
				3,
				5,
				6
			]
		}
	],
	"nodes":[
		{
			"mesh":0,
			"name":"visor",
			"rotation":[
				0,
				-0.7071068286895752,
				0,
				0.7071067094802856
			],
			"scale":[
				0.0935049057006836,
				0.0935049057006836,
				0.0935049057006836
			],
			"translation":[
				-0.0008292067795991898,
				0.17525148391723633,
				1.2214207649230957
			]
		},
		{
			"mesh":1,
			"name":"mainframe",
			"rotation":[
				0,
				-0.7071068286895752,
				0,
				0.7071067094802856
			],
			"scale":[
				0.11968912929296494,
				0.27936282753944397,
				0.011138365603983402
			],
			"translation":[
				0,
				0.05000000074505806,
				-0.40000003576278687
			]
		},
		{
			"mesh":2,
			"name":"aleron",
			"rotation":[
				0.9968447685241699,
				0,
				0,
				0.07937662303447723
			],
			"scale":[
				-0.42039793729782104,
				-0.33733636140823364,
				-0.2595570683479309
			],
			"translation":[
				0.8067923188209534,
				7.500030040740967,
				-1.9349335432052612
			]
		},
		{
			"children":[
				2
			],
			"mesh":3,
			"name":"rwing",
			"rotation":[
				0.9062186479568481,
				-0.005928350612521172,
				0.4225766360759735,
				0.012713388539850712
			],
			"scale":[
				-0.8199999928474426,
				-0.010784999467432499,
				-0.19999997317790985
			],
			"translation":[
				-0.4949999451637268,
				0,
				0.32499998807907104
			]
		},
		{
			"mesh":4,
			"name":"aleron.001",
			"rotation":[
				0.9968447685241699,
				0,
				0,
				0.07937701791524887
			],
			"scale":[
				-0.42039796710014343,
				-0.33733636140823364,
				-0.25955724716186523
			],
			"translation":[
				0.8067922592163086,
				7.500030517578125,
				-1.9349339008331299
			]
		},
		{
			"children":[
				4
			],
			"mesh":5,
			"name":"lwing",
			"rotation":[
				-0.012713388539850712,
				0.4225766360759735,
				0.005928350612521172,
				0.9062186479568481
			],
			"scale":[
				0.8199999928474426,
				0.010784999467432499,
				0.19999997317790985
			],
			"translation":[
				0.4949999451637268,
				0,
				0.32499998807907104
			]
		},
		{
			"mesh":6,
			"name":"cylinders",
			"rotation":[
				0.4888046383857727,
				-0.5109502077102661,
				-0.48880454897880554,
				0.5109501481056213
			],
			"scale":[
				0.0932476669549942,
				0.8722527623176575,
				0.0932476669549942
			],
			"translation":[
				0.2398284375667572,
				-0.053842056542634964,
				-0.11293548345565796
			]
		}
	],
	"materials":[
		{
			"doubleSided":true,
			"name":"Material.007",
			"pbrMetallicRoughness":{
				"baseColorTexture":{
					"index":0
				},
				"metallicFactor":0,
				"roughnessFactor":0.5
			}
		},
		{
			"doubleSided":true,
			"name":"Material.009",
			"pbrMetallicRoughness":{
				"baseColorTexture":{
					"index":1
				},
				"metallicFactor":0,
				"roughnessFactor":0.5
			}
		},
		{
			"doubleSided":true,
			"name":"Material.013",
			"pbrMetallicRoughness":{
				"baseColorTexture":{
					"index":2
				},
				"metallicFactor":0,
				"roughnessFactor":0.5
			}
		},
		{
			"doubleSided":true,
			"name":"Material.001",
			"pbrMetallicRoughness":{
				"baseColorTexture":{
					"index":3
				},
				"metallicFactor":0,
				"roughnessFactor":0.5
			}
		},
		{
			"doubleSided":true,
			"name":"Material",
			"pbrMetallicRoughness":{
				"baseColorTexture":{
					"index":4
				},
				"metallicFactor":0,
				"roughnessFactor":0.5
			}
		},
		{
			"doubleSided":true,
			"name":"Material.012",
			"pbrMetallicRoughness":{
				"baseColorTexture":{
					"index":5
				},
				"metallicFactor":0,
				"roughnessFactor":0.5
			}
		},
		{
			"doubleSided":true,
			"name":"Material.008",
			"pbrMetallicRoughness":{
				"baseColorTexture":{
					"index":6
				},
				"metallicFactor":0,
				"roughnessFactor":0.5
			}
		}
	],
	"meshes":[
		{
			"name":"Cube.011",
			"primitives":[
				{
					"attributes":{
						"POSITION":0,
						"NORMAL":1,
						"TEXCOORD_0":2
					},
					"indices":3,
					"material":0
				}
			]
		},
		{
			"name":"Cube.002",
			"primitives":[
				{
					"attributes":{
						"POSITION":4,
						"NORMAL":5,
						"TEXCOORD_0":6
					},
					"indices":7,
					"material":1
				}
			]
		},
		{
			"name":"Cube.013",
			"primitives":[
				{
					"attributes":{
						"POSITION":8,
						"NORMAL":9,
						"TEXCOORD_0":10
					},
					"indices":11,
					"material":2
				}
			]
		},
		{
			"name":"Cube.001",
			"primitives":[
				{
					"attributes":{
						"POSITION":12,
						"NORMAL":13,
						"TEXCOORD_0":14
					},
					"indices":15,
					"material":3
				}
			]
		},
		{
			"name":"Cube.015",
			"primitives":[
				{
					"attributes":{
						"POSITION":16,
						"NORMAL":17,
						"TEXCOORD_0":18
					},
					"indices":11,
					"material":4
				}
			]
		},
		{
			"name":"Cube.016",
			"primitives":[
				{
					"attributes":{
						"POSITION":19,
						"NORMAL":20,
						"TEXCOORD_0":21
					},
					"indices":15,
					"material":5
				}
			]
		},
		{
			"name":"Cylinder.005",
			"primitives":[
				{
					"attributes":{
						"POSITION":22,
						"NORMAL":23,
						"TEXCOORD_0":24
					},
					"indices":25,
					"material":6
				}
			]
		}
	],
	"textures":[
		{
			"sampler":0,
			"source":0
		},
		{
			"sampler":0,
			"source":1
		},
		{
			"sampler":0,
			"source":2
		},
		{
			"sampler":0,
			"source":3
		},
		{
			"sampler":0,
			"source":2
		},
		{
			"sampler":0,
			"source":3
		},
		{
			"sampler":0,
			"source":4
		}
	],
	"images":[
		{
			"mimeType":"image/png",
			"name":"Visor",
			"uri":"Visor.png"
		},
		{
			"mimeType":"image/png",
			"name":"main_frame",
			"uri":"main_frame.png"
		},
		{
			"mimeType":"image/png",
			"name":"aleron",
			"uri":"aleron.png"
		},
		{
			"mimeType":"image/png",
			"name":"rwing",
			"uri":"rwing.png"
		},
		{
			"mimeType":"image/png",
			"name":"cylinders",
			"uri":"cylinders.png"
		}
	],
	"accessors":[
		{
			"bufferView":0,
			"componentType":5126,
			"count":146,
			"max":[
				4.373647689819336,
				0.7965143918991089,
				1
			],
			"min":[
				-7.143371105194092,
				-1.0134950876235962,
				-1
			],
			"type":"VEC3"
		},
		{
			"bufferView":1,
			"componentType":5126,
			"count":146,
			"type":"VEC3"
		},
		{
			"bufferView":2,
			"componentType":5126,
			"count":146,
			"type":"VEC2"
		},
		{
			"bufferView":3,
			"componentType":5123,
			"count":240,
			"type":"SCALAR"
		},
		{
			"bufferView":4,
			"componentType":5126,
			"count":596,
			"max":[
				12.457956314086914,
				1.5369360446929932,
				70.95942687988281
			],
			"min":[
				-5.179223537445068,
				-0.7066434025764465,
				-70.81053161621094
			],
			"type":"VEC3"
		},
		{
			"bufferView":5,
			"componentType":5126,
			"count":596,
			"type":"VEC3"
		},
		{
			"bufferView":6,
			"componentType":5126,
			"count":596,
			"type":"VEC2"
		},
		{
			"bufferView":7,
			"componentType":5123,
			"count":972,
			"type":"SCALAR"
		},
		{
			"bufferView":8,
			"componentType":5126,
			"count":24,
			"max":[
				0.9845720529556274,
				1.9176959991455078,
				-0.015510916709899902
			],
			"min":[
				-1.0154279470443726,
				-0.08230400085449219,
				-2.0155110359191895
			],
			"type":"VEC3"
		},
		{
			"bufferView":9,
			"componentType":5126,
			"count":24,
			"type":"VEC3"
		},
		{
			"bufferView":10,
			"componentType":5126,
			"count":24,
			"type":"VEC2"
		},
		{
			"bufferView":11,
			"componentType":5123,
			"count":36,
			"type":"SCALAR"
		},
		{
			"bufferView":12,
			"componentType":5126,
			"count":58,
			"max":[
				1.3325482606887817,
				8.703667640686035,
				0.46788203716278076
			],
			"min":[
				-0.3042699694633484,
				6.703667640686035,
				-2.5921735763549805
			],
			"type":"VEC3"
		},
		{
			"bufferView":13,
			"componentType":5126,
			"count":58,
			"type":"VEC3"
		},
		{
			"bufferView":14,
			"componentType":5126,
			"count":58,
			"type":"VEC2"
		},
		{
			"bufferView":15,
			"componentType":5123,
			"count":96,
			"type":"SCALAR"
		},
		{
			"bufferView":16,
			"componentType":5126,
			"count":24,
			"max":[
				0.9845719337463379,
				1.9176959991455078,
				-0.015510916709899902
			],
			"min":[
				-1.015428066253662,
				-0.08230400085449219,
				-2.0155110359191895
			],
			"type":"VEC3"
		},
		{
			"bufferView":17,
			"componentType":5126,
			"count":24,
			"type":"VEC3"
		},
		{
			"bufferView":18,
			"componentType":5126,
			"count":24,
			"type":"VEC2"
		},
		{
			"bufferView":19,
			"componentType":5126,
			"count":58,
			"max":[
				1.3325482606887817,
				8.703667640686035,
				0.46788203716278076
			],
			"min":[
				-0.3042699694633484,
				6.703667640686035,
				-2.5921735763549805
			],
			"type":"VEC3"
		},
		{
			"bufferView":20,
			"componentType":5126,
			"count":58,
			"type":"VEC3"
		},
		{
			"bufferView":21,
			"componentType":5126,
			"count":58,
			"type":"VEC2"
		},
		{
			"bufferView":22,
			"componentType":5126,
			"count":2352,
			"max":[
				1.4000117778778076,
				2.45854115486145,
				6.33931303024292
			],
			"min":[
				-2.068626880645752,
				-1.000000238418579,
				-1.1776206493377686
			],
			"type":"VEC3"
		},
		{
			"bufferView":23,
			"componentType":5126,
			"count":2352,
			"type":"VEC3"
		},
		{
			"bufferView":24,
			"componentType":5126,
			"count":2352,
			"type":"VEC2"
		},
		{
			"bufferView":25,
			"componentType":5123,
			"count":3804,
			"type":"SCALAR"
		}
	],
	"bufferViews":[
		{
			"buffer":0,
			"byteLength":1752,
			"byteOffset":0,
			"target":34962
		},
		{
			"buffer":0,
			"byteLength":1752,
			"byteOffset":1752,
			"target":34962
		},
		{
			"buffer":0,
			"byteLength":1168,
			"byteOffset":3504,
			"target":34962
		},
		{
			"buffer":0,
			"byteLength":480,
			"byteOffset":4672,
			"target":34963
		},
		{
			"buffer":0,
			"byteLength":7152,
			"byteOffset":5152,
			"target":34962
		},
		{
			"buffer":0,
			"byteLength":7152,
			"byteOffset":12304,
			"target":34962
		},
		{
			"buffer":0,
			"byteLength":4768,
			"byteOffset":19456,
			"target":34962
		},
		{
			"buffer":0,
			"byteLength":1944,
			"byteOffset":24224,
			"target":34963
		},
		{
			"buffer":0,
			"byteLength":288,
			"byteOffset":26168,
			"target":34962
		},
		{
			"buffer":0,
			"byteLength":288,
			"byteOffset":26456,
			"target":34962
		},
		{
			"buffer":0,
			"byteLength":192,
			"byteOffset":26744,
			"target":34962
		},
		{
			"buffer":0,
			"byteLength":72,
			"byteOffset":26936,
			"target":34963
		},
		{
			"buffer":0,
			"byteLength":696,
			"byteOffset":27008,
			"target":34962
		},
		{
			"buffer":0,
			"byteLength":696,
			"byteOffset":27704,
			"target":34962
		},
		{
			"buffer":0,
			"byteLength":464,
			"byteOffset":28400,
			"target":34962
		},
		{
			"buffer":0,
			"byteLength":192,
			"byteOffset":28864,
			"target":34963
		},
		{
			"buffer":0,
			"byteLength":288,
			"byteOffset":29056,
			"target":34962
		},
		{
			"buffer":0,
			"byteLength":288,
			"byteOffset":29344,
			"target":34962
		},
		{
			"buffer":0,
			"byteLength":192,
			"byteOffset":29632,
			"target":34962
		},
		{
			"buffer":0,
			"byteLength":696,
			"byteOffset":29824,
			"target":34962
		},
		{
			"buffer":0,
			"byteLength":696,
			"byteOffset":30520,
			"target":34962
		},
		{
			"buffer":0,
			"byteLength":464,
			"byteOffset":31216,
			"target":34962
		},
		{
			"buffer":0,
			"byteLength":28224,
			"byteOffset":31680,
			"target":34962
		},
		{
			"buffer":0,
			"byteLength":28224,
			"byteOffset":59904,
			"target":34962
		},
		{
			"buffer":0,
			"byteLength":18816,
			"byteOffset":88128,
			"target":34962
		},
		{
			"buffer":0,
			"byteLength":7608,
			"byteOffset":106944,
			"target":34963
		}
	],
	"samplers":[
		{
			"magFilter":9729,
			"minFilter":9987
		}
	],
	"buffers":[
		{
			"byteLength":114552,
			"uri":"F14.bin"
		}
	]
}
